<?xml version="1.0" encoding="utf-8"?>
<!-- Generator: Adobe Illustrator 19.0.0, SVG Export Plug-In . SVG Version: 6.00 Build 0)  -->
<svg version="1.1" id="Capa_1" xmlns="http://www.w3.org/2000/svg" xmlns:xlink="http://www.w3.org/1999/xlink" x="0px" y="0px"
	 viewBox="-223 142.3 512 257.4" style="enable-background:new -223 142.3 512 257.4;" xml:space="preserve">
<style type="text/css">
	.st0{fill:url(#XMLID_4_);}
	.st1{fill:url(#XMLID_5_);}
	.st2{fill:url(#XMLID_6_);}
</style>
<linearGradient id="XMLID_4_" gradientUnits="userSpaceOnUse" x1="-213.9558" y1="285.0954" x2="236.6068" y2="285.0954">
	<stop  offset="0.1869" style="stop-color:#A3BDED"/>
	<stop  offset="1" style="stop-color:#04002A"/>
</linearGradient>
<path id="XMLID_91_" class="st0" d="M236.1,329c1.6,12.9-0.6,23.7-2.5,30.5c-0.5,3.7-2.9,16.6-14.4,27.1
	c-10.7,9.7-22.7,11.2-26.5,11.6h-368.8c-20.5,0-37.7-17.6-37.8-39.8v-0.4c0-59.3,42.8-107.2,96.8-110.6
	c20.6-46.1,66.7-75.8,117-75.3c13.6,0.1,24.2,2.4,27.2,3.3c55.3,14.8,79.2,72.9,84.3,86.1c18.3-10.5,33.7-11.4,41.4-11.2
	C194.6,251.3,231.3,289.7,236.1,329z"/>
<linearGradient id="XMLID_5_" gradientUnits="userSpaceOnUse" x1="-221.9306" y1="282.9841" x2="27.0846" y2="282.9841">
	<stop  offset="0.1869" style="stop-color:#A3BDED"/>
	<stop  offset="1" style="stop-color:#04002A"/>
</linearGradient>
<path id="XMLID_90_" class="st1" d="M27.1,175.3C17,179.8-3.4,190.5-19,213.1c-26,37.6-18.5,78.7-16.8,86.9
	c-4.7-2.8-31.3-17.7-62.1-7.7c-4.5,1.5-20.2,5.5-31.9,20.1c-17.2,21.3-18.7,52.7-5.1,81.7c-13.8,0-27.5,0-41.3,0
	c-5.6,0-24.8-5.1-35.7-18.3c-16.2-19.6-12.8-55.8,10.2-88.5c6.3-8.4,23.6-29,53.5-37.2c12.1-3.3,22.8-3.4,31-2.9
	c20.6-46.1,66.7-75.7,117-75.2C9.2,172,18.3,173.3,27.1,175.3z"/>
<linearGradient id="XMLID_6_" gradientUnits="userSpaceOnUse" x1="-101.7873" y1="245.2963" x2="287.6972" y2="245.2963">
	<stop  offset="0.1869" style="stop-color:#A3BDED"/>
	<stop  offset="1" style="stop-color:#00012A"/>
</linearGradient>
<path id="XMLID_98_" class="st2" d="M274,248.6c18.8,34.6,17.8,70.2-0.4,87.6c-3.8,3.7-10.9,8.9-23,11.2H-69
	c-17.8,0-32.7-17-32.7-38.3v-0.4c0-57.1,37.1-103.2,83.9-106.4c9.8-13.4,40-51,88.4-57.9c15.8-2.3,27.8-0.5,30.7,0
	c49.5,8.1,76.1,53.9,82,64.5c7.5-2.7,19.1-5.6,32.9-3.8C253,209.9,271.8,244.3,274,248.6z"/>
</svg>
