<?xml version="1.0" encoding="utf-8"?>
<!-- Generator: Adobe Illustrator 19.0.0, SVG Export Plug-In . SVG Version: 6.00 Build 0)  -->
<svg version="1.1" id="Capa_1" xmlns="http://www.w3.org/2000/svg" xmlns:xlink="http://www.w3.org/1999/xlink" x="0px" y="0px"
	 viewBox="-223 101.1 512 374" style="enable-background:new -223 101.1 512 374;" xml:space="preserve">
<style type="text/css">
	.st0{fill:#BFCBD4;}
</style>
<path id="XMLID_94_" class="st0" d="M77.5,182.6h-256.4c-21,0-38.2-17.2-38.2-38.2v0c0-21,17.2-38.2,38.2-38.2H77.5
	c21,0,38.2,17.2,38.2,38.2v0C115.7,165.4,98.5,182.6,77.5,182.6z"/>
<path id="XMLID_96_" class="st0" d="M242.4,277.2H-14c-21,0-38.2-17.2-38.2-38.2v0c0-21,17.2-38.2,38.2-38.2h256.4
	c21,0,38.2,17.2,38.2,38.2v0C280.7,260,263.5,277.2,242.4,277.2z"/>
<path id="XMLID_97_" class="st0" d="M59.8,370.7H-133c-21,0-38.2-17.2-38.2-38.2v0c0-21,17.2-38.2,38.2-38.2H59.8
	c21,0,38.2,17.2,38.2,38.2v0C98,353.5,80.8,370.7,59.8,370.7z"/>
<path id="XMLID_99_" class="st0" d="M212.7,464.2H19.9c-21,0-38.2-17.2-38.2-38.2v0c0-21,17.2-38.2,38.2-38.2h192.8
	c21,0,38.2,17.2,38.2,38.2v0C250.9,447,233.7,464.2,212.7,464.2z"/>
</svg>
