<?xml version="1.0" encoding="utf-8"?>
<!-- Generator: Adobe Illustrator 19.0.0, SVG Export Plug-In . SVG Version: 6.00 Build 0)  -->
<svg version="1.1" id="Capa_1" xmlns="http://www.w3.org/2000/svg" xmlns:xlink="http://www.w3.org/1999/xlink" x="0px" y="0px"
	 viewBox="-223 25 512 512" style="enable-background:new -223 25 512 512;" xml:space="preserve">
<style type="text/css">
	.st0{fill:#212121;}
</style>
<g>
	<g>
		<path class="st0" d="M214,100C165.7,51.6,101.4,25,33,25s-132.7,26.6-181,75c-48.4,48.4-75,112.6-75,181s26.6,132.7,75,181
			c48.4,48.4,112.6,75,181,75s132.7-26.6,181-75c48.4-48.4,75-112.6,75-181S262.4,148.3,214,100z M18,105h30v60H18V105z M-83,296
			h-60v-30h60V296z M-75,236l-52-30l15-26l52,30L-75,236z M-38,188l-30-52l26-15l30,52L-38,188z M33,421c-22.1,0-40-17.9-40-40
			c0-16.8,10.3-31.1,25-37.1V216h30v127.9c14.7,5.9,25,20.3,25,37.1C73,403.1,55.1,421,33,421z M78,173l30-52l26,15l-30,52L78,173z
			 M126,210l52-30l15,26l-52,30L126,210z M209,296h-60v-30h60V296z"/>
	</g>
</g>
</svg>
