<?xml version="1.0" encoding="utf-8"?>
<!-- Generator: Adobe Illustrator 19.0.0, SVG Export Plug-In . SVG Version: 6.00 Build 0)  -->
<svg version="1.1" id="Capa_1" xmlns="http://www.w3.org/2000/svg" xmlns:xlink="http://www.w3.org/1999/xlink" x="0px" y="0px"
	 viewBox="-223 25.6 511.4 511.4" style="enable-background:new -223 25.6 511.4 511.4;" xml:space="preserve">
<style type="text/css">
	.st0{fill:#212121;}
	.st1{fill:#FAFAFA;}
</style>
<path class="st0" d="M121.6,137.8c-26.2-33.4-53.2-67.9-75-104.9c-5.8-9.8-21.8-9.8-27.6,0c-21.9,37-48.9,71.5-75.1,104.9
	c-53.1,67.7-103.2,131.6-103.2,207.2c0,105.9,86.1,192,192,192s192-86.1,192-192C224.7,269.4,174.6,205.4,121.6,137.8z"/>
<g>
	<path class="st1" d="M-15.3,313c-26.5,0-48-21.5-48-48s21.5-48,48-48s48,21.5,48,48S11.2,313-15.3,313z M-15.3,249
		c-8.8,0-16,7.2-16,16s7.2,16,16,16s16-7.2,16-16S-6.4,249-15.3,249z"/>
	<path class="st1" d="M80.7,473c-26.5,0-48-21.5-48-48s21.5-48,48-48s48,21.5,48,48S107.2,473,80.7,473z M80.7,409
		c-8.8,0-16,7.2-16,16s7.2,16,16,16s16-7.2,16-16S89.5,409,80.7,409z"/>
	<path class="st1" d="M-47.3,441c-4.1,0-8.2-1.6-11.3-4.7c-6.2-6.2-6.2-16.4,0-22.6l160-160c6.2-6.2,16.4-6.2,22.6,0
		c6.2,6.2,6.2,16.4,0,22.6l-160,160C-39.1,439.4-43.2,441-47.3,441z"/>
</g>
</svg>
