<?xml version="1.0" encoding="utf-8"?>
<!-- Generator: Adobe Illustrator 19.0.0, SVG Export Plug-In . SVG Version: 6.00 Build 0)  -->
<svg version="1.1" id="Capa_1" xmlns="http://www.w3.org/2000/svg" xmlns:xlink="http://www.w3.org/1999/xlink" x="0px" y="0px"
	 viewBox="-223 260 470.8 96.9" style="enable-background:new -223 260 470.8 96.9;" xml:space="preserve">
<style type="text/css">
	.st0{opacity:0.36;fill:#FFE092;}
	.st1{fill:#FABF17;}
	.st2{fill:#FFFFFF;}
</style>
<g id="XMLID_47_">
	<circle id="XMLID_37_" class="st0" cx="-174.7" cy="308.9" r="47.2"/>
	<circle id="XMLID_36_" class="st1" cx="-174.7" cy="308.9" r="33.4"/>
	<path id="XMLID_19_" class="st2" d="M-173.3,288.8c-0.4,1.7-4.5,0.6-9.2,3c-6.2,3-7.6,8.9-8.9,8.3c-1.3-0.6-1.2-7.9,3.3-12.4
		c0.4-0.4,4.8-4.6,9.9-3.3C-175.6,285.2-172.9,287.4-173.3,288.8z"/>
</g>
<g>
	<path d="M-47.8,321c-0.1,0.5-0.3,0.9-0.5,1.2c-0.2,0.3-0.6,0.6-1,0.7c-0.5,0.2-1,0.3-1.7,0.3c-0.7,0.1-1.6,0.1-2.7,0.1
		c-1.2,0-2.2,0-3-0.1c-0.7-0.1-1.3-0.2-1.8-0.3c-0.4-0.2-0.7-0.4-0.9-0.7c-0.2-0.3-0.3-0.7-0.5-1.2l-6.7-26.6h-0.1L-73,321
		c-0.1,0.5-0.3,0.9-0.5,1.2c-0.2,0.3-0.5,0.6-0.9,0.7c-0.4,0.2-1,0.3-1.7,0.3s-1.7,0.1-2.9,0.1c-1.3,0-2.3,0-3-0.1
		c-0.7-0.1-1.3-0.2-1.8-0.3c-0.4-0.2-0.7-0.4-0.9-0.7c-0.2-0.3-0.4-0.7-0.5-1.2l-9.5-36.6c-0.2-0.8-0.3-1.4-0.3-1.8
		c0-0.4,0.1-0.8,0.4-1c0.3-0.2,0.7-0.4,1.3-0.4c0.6-0.1,1.5-0.1,2.6-0.1c1,0,1.8,0,2.4,0c0.6,0,1,0.1,1.3,0.2
		c0.3,0.1,0.5,0.3,0.6,0.5c0.1,0.2,0.2,0.5,0.3,1l7.4,32.1h0l7.6-31.9c0.1-0.4,0.2-0.7,0.3-1c0.1-0.3,0.4-0.5,0.7-0.6
		c0.3-0.1,0.8-0.2,1.4-0.3c0.6-0.1,1.4-0.1,2.3-0.1c1,0,1.9,0,2.5,0.1c0.6,0,1.1,0.1,1.4,0.3c0.3,0.1,0.6,0.3,0.7,0.6
		c0.2,0.3,0.3,0.6,0.4,1l7.9,31.9h0.1l7.4-32c0.1-0.3,0.2-0.6,0.3-0.9s0.3-0.4,0.6-0.6c0.3-0.1,0.7-0.2,1.3-0.3
		c0.6-0.1,1.3-0.1,2.4-0.1c1,0,1.7,0,2.2,0.1c0.5,0.1,0.9,0.2,1.1,0.4c0.2,0.2,0.3,0.6,0.3,1.1c0,0.5-0.1,1.1-0.3,1.9L-47.8,321z"/>
	<path d="M-7.9,306.8c0,1-0.2,1.7-0.7,2.2c-0.4,0.5-1.1,0.7-1.8,0.7H-28c0,1.2,0.1,2.3,0.4,3.4s0.8,1.9,1.4,2.6
		c0.6,0.7,1.5,1.2,2.5,1.6s2.2,0.5,3.6,0.5c1.4,0,2.7-0.1,3.8-0.3c1.1-0.2,2-0.4,2.8-0.7c0.8-0.2,1.4-0.5,2-0.7
		c0.5-0.2,0.9-0.3,1.3-0.3c0.2,0,0.4,0,0.5,0.1c0.1,0.1,0.2,0.2,0.3,0.4c0.1,0.2,0.1,0.5,0.2,0.8c0,0.4,0,0.8,0,1.3
		c0,0.5,0,0.9,0,1.2c0,0.3-0.1,0.6-0.1,0.9c0,0.2-0.1,0.4-0.2,0.6c-0.1,0.2-0.2,0.3-0.3,0.5c-0.1,0.2-0.5,0.4-1.1,0.6
		c-0.6,0.3-1.4,0.5-2.4,0.8c-1,0.2-2.1,0.5-3.3,0.6s-2.6,0.3-4,0.3c-2.6,0-4.8-0.3-6.8-1c-1.9-0.6-3.5-1.6-4.8-2.9
		c-1.3-1.3-2.3-3-2.9-5c-0.6-2-1-4.4-1-7.1c0-2.6,0.3-4.9,1-6.9c0.7-2.1,1.6-3.8,2.9-5.2c1.3-1.4,2.8-2.5,4.6-3.3
		c1.8-0.8,3.9-1.1,6.2-1.1c2.4,0,4.5,0.4,6.2,1.1s3.1,1.7,4.2,3c1.1,1.3,1.9,2.8,2.4,4.5c0.5,1.7,0.8,3.6,0.8,5.6V306.8z
		 M-15.8,304.5c0.1-2.3-0.4-4.1-1.4-5.4c-1-1.3-2.5-2-4.6-2c-1,0-1.9,0.2-2.7,0.6c-0.8,0.4-1.4,0.9-1.9,1.6
		c-0.5,0.7-0.9,1.4-1.2,2.3c-0.3,0.9-0.4,1.9-0.5,2.9H-15.8z"/>
	<path d="M23.4,322.2c0,0.3-0.1,0.5-0.3,0.7c-0.2,0.2-0.6,0.3-1,0.4c-0.5,0.1-1.1,0.1-2.1,0.1c-1,0-1.7,0-2.1-0.1
		c-0.4-0.1-0.8-0.2-0.9-0.4c-0.2-0.2-0.3-0.4-0.3-0.7v-2.3c-1.2,1.3-2.5,2.3-4.1,3c-1.5,0.7-3.2,1.1-5.1,1.1c-1.5,0-2.9-0.2-4.2-0.6
		c-1.3-0.4-2.4-1-3.3-1.8c-0.9-0.8-1.7-1.8-2.2-2.9c-0.5-1.2-0.8-2.5-0.8-4.1c0-1.7,0.3-3.1,1-4.4c0.7-1.2,1.6-2.3,2.9-3.1
		c1.3-0.8,2.9-1.4,4.9-1.8c1.9-0.4,4.2-0.6,6.8-0.6h2.8v-1.8c0-0.9-0.1-1.7-0.3-2.4c-0.2-0.7-0.5-1.2-0.9-1.7c-0.4-0.5-1-0.8-1.7-1
		c-0.7-0.2-1.6-0.3-2.6-0.3c-1.4,0-2.6,0.2-3.6,0.5c-1.1,0.3-2,0.6-2.8,1c-0.8,0.4-1.5,0.7-2.1,1c-0.6,0.3-1,0.5-1.3,0.5
		c-0.2,0-0.4-0.1-0.6-0.2c-0.2-0.2-0.3-0.4-0.5-0.6c-0.1-0.3-0.2-0.6-0.3-1s-0.1-0.9-0.1-1.4c0-0.7,0.1-1.2,0.2-1.6
		c0.1-0.4,0.3-0.7,0.6-1.1c0.3-0.3,0.8-0.7,1.6-1c0.8-0.4,1.6-0.7,2.7-1.1c1-0.3,2.1-0.6,3.3-0.8c1.2-0.2,2.4-0.3,3.7-0.3
		c2.3,0,4.2,0.2,5.8,0.7c1.6,0.4,2.9,1.1,4,2s1.8,2.1,2.3,3.5c0.5,1.4,0.7,3.2,0.7,5.2V322.2z M15.4,309.8h-3.1
		c-1.3,0-2.4,0.1-3.4,0.3c-0.9,0.2-1.7,0.5-2.3,0.9s-1,0.9-1.3,1.4c-0.3,0.5-0.4,1.2-0.4,1.9c0,1.2,0.4,2.2,1.1,2.9
		c0.8,0.7,1.8,1,3.2,1c1.1,0,2.2-0.3,3.2-0.9s1.9-1.4,2.9-2.6V309.8z"/>
	<path d="M48,319.2c0,1-0.1,1.7-0.2,2.2c-0.1,0.5-0.3,0.9-0.5,1.1s-0.5,0.4-0.9,0.6s-0.8,0.3-1.3,0.4c-0.5,0.1-1.1,0.2-1.7,0.3
		c-0.6,0.1-1.2,0.1-1.8,0.1c-1.6,0-3-0.2-4.2-0.6s-2.2-1-2.9-1.9c-0.8-0.9-1.4-1.9-1.7-3.2c-0.4-1.3-0.6-2.8-0.6-4.6v-14.8h-3.5
		c-0.4,0-0.7-0.3-0.9-0.8c-0.2-0.5-0.3-1.4-0.3-2.5c0-0.6,0-1.2,0.1-1.6c0.1-0.4,0.1-0.8,0.2-1c0.1-0.2,0.2-0.4,0.4-0.5
		c0.2-0.1,0.4-0.2,0.6-0.2h3.4v-6.4c0-0.2,0.1-0.4,0.2-0.6c0.1-0.2,0.3-0.3,0.6-0.4c0.3-0.1,0.7-0.2,1.3-0.3s1.2-0.1,2-0.1
		c0.8,0,1.5,0,2,0.1s0.9,0.1,1.2,0.3c0.3,0.1,0.5,0.3,0.6,0.4c0.1,0.2,0.2,0.4,0.2,0.6v6.4h6.3c0.2,0,0.4,0.1,0.6,0.2
		c0.2,0.1,0.3,0.3,0.4,0.5c0.1,0.2,0.2,0.6,0.2,1c0.1,0.4,0.1,1,0.1,1.6c0,1.2-0.1,2-0.3,2.5c-0.2,0.5-0.5,0.8-0.9,0.8h-6.3v13.6
		c0,1.6,0.2,2.8,0.7,3.5c0.5,0.8,1.4,1.2,2.7,1.2c0.4,0,0.8,0,1.2-0.1c0.3-0.1,0.7-0.2,0.9-0.3c0.3-0.1,0.5-0.2,0.7-0.3
		c0.2-0.1,0.4-0.1,0.5-0.1c0.1,0,0.3,0,0.4,0.1c0.1,0.1,0.2,0.2,0.3,0.5c0.1,0.2,0.1,0.5,0.2,0.9C48,318.1,48,318.6,48,319.2z"/>
	<path d="M81.5,322.1c0,0.2-0.1,0.4-0.2,0.6s-0.3,0.3-0.6,0.4c-0.3,0.1-0.7,0.2-1.2,0.2s-1.2,0.1-2,0.1c-0.8,0-1.5,0-2-0.1
		c-0.5-0.1-0.9-0.1-1.2-0.2c-0.3-0.1-0.5-0.2-0.6-0.4s-0.2-0.4-0.2-0.6v-16.5c0-1.4-0.1-2.5-0.3-3.3s-0.5-1.5-0.9-2.1
		s-0.9-1-1.5-1.3c-0.6-0.3-1.3-0.5-2.2-0.5c-1,0-2.1,0.4-3.1,1.1c-1.1,0.8-2.2,1.9-3.3,3.3v19.2c0,0.2-0.1,0.4-0.2,0.6
		c-0.1,0.2-0.4,0.3-0.7,0.4c-0.3,0.1-0.7,0.2-1.2,0.2c-0.5,0.1-1.2,0.1-2,0.1s-1.5,0-2-0.1c-0.5-0.1-0.9-0.1-1.2-0.2
		c-0.3-0.1-0.5-0.2-0.7-0.4c-0.1-0.2-0.2-0.4-0.2-0.6v-42.6c0-0.2,0.1-0.4,0.2-0.6c0.1-0.2,0.4-0.3,0.7-0.4c0.3-0.1,0.7-0.2,1.2-0.3
		c0.5-0.1,1.2-0.1,2-0.1s1.5,0,2,0.1c0.5,0.1,0.9,0.2,1.2,0.3c0.3,0.1,0.5,0.3,0.7,0.4c0.1,0.2,0.2,0.4,0.2,0.6v16
		c1.4-1.4,2.8-2.4,4.3-3.1c1.5-0.7,3-1,4.6-1c2,0,3.6,0.3,5,1c1.3,0.6,2.4,1.5,3.3,2.7c0.8,1.1,1.4,2.4,1.8,3.9s0.6,3.3,0.6,5.5
		V322.1z"/>
	<path d="M116.2,306.8c0,1-0.2,1.7-0.7,2.2c-0.4,0.5-1.1,0.7-1.8,0.7H96.1c0,1.2,0.1,2.3,0.4,3.4c0.3,1,0.8,1.9,1.4,2.6
		s1.5,1.2,2.5,1.6c1,0.4,2.2,0.5,3.6,0.5c1.4,0,2.7-0.1,3.8-0.3c1.1-0.2,2-0.4,2.8-0.7s1.4-0.5,2-0.7c0.5-0.2,0.9-0.3,1.3-0.3
		c0.2,0,0.4,0,0.5,0.1c0.1,0.1,0.2,0.2,0.3,0.4c0.1,0.2,0.1,0.5,0.2,0.8s0,0.8,0,1.3c0,0.5,0,0.9,0,1.2c0,0.3-0.1,0.6-0.1,0.9
		c0,0.2-0.1,0.4-0.2,0.6s-0.2,0.3-0.3,0.5s-0.5,0.4-1.2,0.6c-0.6,0.3-1.4,0.5-2.4,0.8s-2.1,0.5-3.3,0.6c-1.3,0.2-2.6,0.3-4,0.3
		c-2.6,0-4.8-0.3-6.8-1c-1.9-0.6-3.5-1.6-4.8-2.9c-1.3-1.3-2.3-3-2.9-5s-1-4.4-1-7.1c0-2.6,0.3-4.9,1-6.9c0.7-2.1,1.6-3.8,2.9-5.2
		c1.3-1.4,2.8-2.5,4.6-3.3s3.9-1.1,6.2-1.1c2.4,0,4.5,0.4,6.2,1.1c1.7,0.7,3.1,1.7,4.2,3s1.9,2.8,2.4,4.5c0.5,1.7,0.8,3.6,0.8,5.6
		V306.8z M108.3,304.5c0.1-2.3-0.4-4.1-1.4-5.4c-1-1.3-2.5-2-4.6-2c-1,0-1.9,0.2-2.7,0.6c-0.8,0.4-1.4,0.9-1.9,1.6
		c-0.5,0.7-0.9,1.4-1.2,2.3c-0.3,0.9-0.4,1.9-0.5,2.9H108.3z"/>
	<path d="M141.5,295.9c0,0.8,0,1.4-0.1,1.9c0,0.5-0.1,0.9-0.2,1.2c-0.1,0.3-0.2,0.5-0.3,0.6c-0.1,0.1-0.3,0.2-0.5,0.2
		c-0.2,0-0.4,0-0.6-0.1c-0.2-0.1-0.5-0.2-0.7-0.2c-0.3-0.1-0.6-0.2-0.9-0.2c-0.3-0.1-0.7-0.1-1.1-0.1c-0.5,0-0.9,0.1-1.4,0.3
		c-0.5,0.2-0.9,0.5-1.4,0.9s-1,0.9-1.5,1.6c-0.5,0.6-1.1,1.4-1.7,2.4v18c0,0.2-0.1,0.4-0.2,0.6c-0.1,0.2-0.4,0.3-0.7,0.4
		c-0.3,0.1-0.7,0.2-1.2,0.2c-0.5,0.1-1.2,0.1-2,0.1s-1.5,0-2-0.1c-0.5-0.1-0.9-0.1-1.2-0.2c-0.3-0.1-0.5-0.2-0.7-0.4
		c-0.1-0.2-0.2-0.4-0.2-0.6v-28.9c0-0.2,0.1-0.4,0.2-0.6c0.1-0.2,0.3-0.3,0.6-0.4c0.3-0.1,0.6-0.2,1.1-0.2c0.4-0.1,1-0.1,1.7-0.1
		c0.7,0,1.3,0,1.7,0.1s0.8,0.1,1.1,0.2s0.4,0.2,0.5,0.4c0.1,0.2,0.2,0.4,0.2,0.6v3.6c0.8-1.1,1.5-2,2.1-2.7c0.7-0.7,1.3-1.3,1.9-1.7
		c0.6-0.4,1.2-0.7,1.8-0.9s1.2-0.2,1.8-0.2c0.3,0,0.6,0,0.9,0c0.3,0,0.7,0.1,1,0.2c0.3,0.1,0.6,0.2,0.9,0.3c0.3,0.1,0.4,0.2,0.6,0.3
		c0.1,0.1,0.2,0.2,0.3,0.4s0.1,0.3,0.1,0.5c0,0.2,0.1,0.6,0.1,1C141.5,294.5,141.5,295.1,141.5,295.9z"/>
	<path d="M179.4,321.2c0.2,0.5,0.3,0.9,0.3,1.1c0,0.3-0.1,0.5-0.2,0.7c-0.2,0.2-0.5,0.2-0.9,0.3c-0.4,0-0.9,0.1-1.6,0.1
		c-0.7,0-1.2,0-1.6,0s-0.7-0.1-0.9-0.2c-0.2-0.1-0.4-0.2-0.5-0.3c-0.1-0.1-0.2-0.3-0.3-0.5l-3.6-10.2h-17.4l-3.4,10.1
		c-0.1,0.2-0.2,0.4-0.3,0.5c-0.1,0.1-0.3,0.3-0.5,0.4c-0.2,0.1-0.5,0.2-0.9,0.2c-0.4,0-0.9,0.1-1.5,0.1c-0.6,0-1.1,0-1.5-0.1
		s-0.7-0.2-0.8-0.3c-0.2-0.2-0.2-0.4-0.2-0.7c0-0.3,0.1-0.7,0.3-1.2l14.1-38.9c0.1-0.2,0.2-0.4,0.3-0.6c0.1-0.2,0.3-0.3,0.6-0.4
		c0.3-0.1,0.6-0.1,1-0.2c0.4,0,1,0,1.6,0c0.7,0,1.3,0,1.7,0c0.5,0,0.8,0.1,1.1,0.2c0.3,0.1,0.5,0.2,0.6,0.4c0.2,0.2,0.3,0.4,0.4,0.6
		L179.4,321.2z M161.3,286.8L161.3,286.8l-7.3,20.9h14.6L161.3,286.8z"/>
	<path d="M212.6,307.3c0,2.5-0.3,4.8-0.8,6.9s-1.4,3.8-2.4,5.2c-1.1,1.4-2.4,2.5-4,3.3c-1.6,0.8-3.4,1.1-5.4,1.1
		c-0.9,0-1.7-0.1-2.4-0.3s-1.5-0.4-2.2-0.8c-0.7-0.4-1.4-0.8-2.1-1.4c-0.7-0.6-1.4-1.2-2.2-2v14.6c0,0.2,0,0.3-0.1,0.5
		c-0.1,0.1-0.2,0.2-0.4,0.3c-0.2,0.1-0.5,0.2-0.8,0.2c-0.3,0-0.8,0.1-1.3,0.1c-0.5,0-1,0-1.3-0.1c-0.3,0-0.6-0.1-0.8-0.2
		c-0.2-0.1-0.3-0.2-0.4-0.3c-0.1-0.1-0.1-0.3-0.1-0.5v-40.7c0-0.2,0-0.4,0.1-0.5c0.1-0.1,0.2-0.2,0.4-0.3c0.2-0.1,0.4-0.1,0.7-0.2
		c0.3,0,0.7,0,1.1,0c0.5,0,0.8,0,1.1,0c0.3,0,0.5,0.1,0.7,0.2c0.2,0.1,0.3,0.2,0.4,0.3c0.1,0.1,0.1,0.3,0.1,0.5v3.9
		c0.9-0.9,1.7-1.7,2.6-2.4c0.8-0.7,1.6-1.2,2.5-1.7c0.8-0.4,1.7-0.8,2.6-1c0.9-0.2,1.8-0.3,2.8-0.3c2.1,0,3.9,0.4,5.4,1.2
		c1.5,0.8,2.7,1.9,3.6,3.4c0.9,1.4,1.6,3.1,2.1,5C212.4,303.2,212.6,305.2,212.6,307.3z M207,308c0-1.5-0.1-2.9-0.3-4.3
		c-0.2-1.4-0.6-2.6-1.2-3.7c-0.6-1.1-1.3-1.9-2.2-2.6c-0.9-0.6-2.1-1-3.5-1c-0.7,0-1.4,0.1-2.1,0.3c-0.7,0.2-1.4,0.5-2.1,1
		s-1.4,1-2.2,1.7c-0.8,0.7-1.6,1.6-2.4,2.7v11.6c1.5,1.8,2.9,3.2,4.2,4.1c1.3,1,2.7,1.4,4.2,1.4c1.3,0,2.5-0.3,3.5-1
		c1-0.6,1.8-1.5,2.3-2.6c0.6-1.1,1-2.3,1.3-3.6C206.9,310.7,207,309.3,207,308z"/>
	<path d="M247.4,307.3c0,2.5-0.3,4.8-0.8,6.9s-1.4,3.8-2.4,5.2c-1.1,1.4-2.4,2.5-4,3.3c-1.6,0.8-3.4,1.1-5.4,1.1
		c-0.9,0-1.7-0.1-2.4-0.3s-1.5-0.4-2.2-0.8c-0.7-0.4-1.4-0.8-2.1-1.4c-0.7-0.6-1.4-1.2-2.2-2v14.6c0,0.2,0,0.3-0.1,0.5
		c-0.1,0.1-0.2,0.2-0.4,0.3c-0.2,0.1-0.5,0.2-0.8,0.2c-0.3,0-0.8,0.1-1.3,0.1c-0.5,0-1,0-1.3-0.1c-0.3,0-0.6-0.1-0.8-0.2
		c-0.2-0.1-0.3-0.2-0.4-0.3c-0.1-0.1-0.1-0.3-0.1-0.5v-40.7c0-0.2,0-0.4,0.1-0.5c0.1-0.1,0.2-0.2,0.4-0.3c0.2-0.1,0.4-0.1,0.7-0.2
		c0.3,0,0.7,0,1.1,0c0.5,0,0.8,0,1.1,0c0.3,0,0.5,0.1,0.7,0.2c0.2,0.1,0.3,0.2,0.4,0.3c0.1,0.1,0.1,0.3,0.1,0.5v3.9
		c0.9-0.9,1.7-1.7,2.6-2.4c0.8-0.7,1.6-1.2,2.5-1.7c0.8-0.4,1.7-0.8,2.6-1c0.9-0.2,1.8-0.3,2.8-0.3c2.1,0,3.9,0.4,5.4,1.2
		c1.5,0.8,2.7,1.9,3.6,3.4c0.9,1.4,1.6,3.1,2.1,5C247.2,303.2,247.4,305.2,247.4,307.3z M241.9,308c0-1.5-0.1-2.9-0.3-4.3
		c-0.2-1.4-0.6-2.6-1.2-3.7c-0.6-1.1-1.3-1.9-2.2-2.6c-0.9-0.6-2.1-1-3.5-1c-0.7,0-1.4,0.1-2.1,0.3c-0.7,0.2-1.4,0.5-2.1,1
		s-1.4,1-2.2,1.7c-0.8,0.7-1.6,1.6-2.4,2.7v11.6c1.5,1.8,2.9,3.2,4.2,4.1c1.3,1,2.7,1.4,4.2,1.4c1.3,0,2.5-0.3,3.5-1
		c1-0.6,1.8-1.5,2.3-2.6c0.6-1.1,1-2.3,1.3-3.6C241.8,310.7,241.9,309.3,241.9,308z"/>
</g>
</svg>
