<?xml version="1.0" encoding="utf-8"?>
<!-- Generator: Adobe Illustrator 19.0.0, SVG Export Plug-In . SVG Version: 6.00 Build 0)  -->
<svg version="1.1" id="Capa_1" xmlns="http://www.w3.org/2000/svg" xmlns:xlink="http://www.w3.org/1999/xlink" x="0px" y="0px"
	 viewBox="-223 25 512 512" style="enable-background:new -223 25 512 512;" xml:space="preserve">
<style type="text/css">
	.st0{fill:#FFFFFF;}
</style>
<g>
	<g>
		<path class="st0" d="M2.5,25C-121.8,25-223,126.2-223,250.5c0,124.3,101.2,225.5,225.5,225.5c124.3,0,225.5-101.1,225.5-225.5
			C227.9,126.2,126.8,25,2.5,25z M2.5,434.3c-101.4,0-183.8-82.5-183.8-183.8S-98.9,66.6,2.5,66.6s183.8,82.5,183.8,183.8
			S103.8,434.3,2.5,434.3z"/>
	</g>
</g>
<g>
	<g>
		<path class="st0" d="M282.9,501.5L163.6,382.1c-8.1-8.1-21.3-8.1-29.4,0c-8.1,8.1-8.1,21.3,0,29.4l119.3,119.3
			c4.1,4.1,9.4,6.1,14.7,6.1c5.3,0,10.6-2,14.7-6.1C291,522.8,291,509.6,282.9,501.5z"/>
	</g>
</g>
</svg>
