<?xml version="1.0" encoding="utf-8"?>
<!-- Generator: Adobe Illustrator 19.0.0, SVG Export Plug-In . SVG Version: 6.00 Build 0)  -->
<svg version="1.1" id="Capa_1" xmlns="http://www.w3.org/2000/svg" xmlns:xlink="http://www.w3.org/1999/xlink" x="0px" y="0px"
	 viewBox="-223 142.3 512 292" style="enable-background:new -223 142.3 512 292;" xml:space="preserve">
<style type="text/css">
	.st0{fill:url(#XMLID_14_);}
	.st1{fill:url(#XMLID_15_);}
	.st2{fill:url(#XMLID_16_);stroke:#898989;stroke-miterlimit:10;}
	.st3{fill:url(#XMLID_17_);stroke:#898989;stroke-miterlimit:10;}
	.st4{fill:url(#XMLID_18_);stroke:#898989;stroke-miterlimit:10;}
	.st5{fill:url(#XMLID_19_);stroke:#898989;stroke-miterlimit:10;}
	.st6{fill:url(#XMLID_20_);stroke:#898989;stroke-miterlimit:10;}
	.st7{fill:url(#XMLID_21_);stroke:#898989;stroke-miterlimit:10;}
	.st8{fill:url(#XMLID_22_);stroke:#898989;stroke-miterlimit:10;}
	.st9{fill:url(#XMLID_23_);stroke:#898989;stroke-miterlimit:10;}
	.st10{fill:url(#XMLID_24_);stroke:#898989;stroke-miterlimit:10;}
	.st11{fill:url(#XMLID_25_);stroke:#898989;stroke-miterlimit:10;}
	.st12{fill:url(#XMLID_26_);}
</style>
<linearGradient id="XMLID_14_" gradientUnits="userSpaceOnUse" x1="-145.0915" y1="245.9068" x2="181.0508" y2="245.9068">
	<stop  offset="0.1869" style="stop-color:#A3BDED"/>
	<stop  offset="1" style="stop-color:#04002A"/>
</linearGradient>
<path id="XMLID_91_" class="st0" d="M180.7,277.7c1.1,9.3-0.4,17.2-1.8,22c-0.4,2.7-2.1,12-10.4,19.6c-7.7,7-16.4,8.1-19.2,8.4h-267
	c-14.8,0-27.3-12.8-27.3-28.8v-0.3c0-42.9,31-77.6,70-80c14.9-33.4,48.3-54.8,84.7-54.5c9.8,0.1,17.5,1.8,19.7,2.4
	c40.1,10.7,57.4,52.8,61,62.3c13.2-7.6,24.4-8.3,30-8.1C150.7,221.4,177.2,249.2,180.7,277.7z"/>
<linearGradient id="XMLID_15_" gradientUnits="userSpaceOnUse" x1="-150.8641" y1="244.5136" x2="29.3869" y2="244.5136">
	<stop  offset="0.1869" style="stop-color:#A3BDED"/>
	<stop  offset="1" style="stop-color:#04002A"/>
</linearGradient>
<path id="XMLID_90_" class="st1" d="M29.4,166.4c-7.3,3.2-22.1,11-33.4,27.3c-18.8,27.2-13.4,57-12.2,62.9c-3.4-2-22.7-12.8-45-5.6
	c-3.3,1.1-14.6,4.1-23.1,14.7c-12.4,15.4-13.5,38.2-3.7,59.2c-10,0-19.9,0-29.9,0c-4,0-17.9-3.8-25.8-13.4
	c-11.8-14.2-9.3-40.5,7.4-64.2c4.5-6.1,17.1-21.1,38.7-26.9c8.7-2.4,16.5-2.5,22.4-2.1c14.9-33.4,48.3-54.8,84.7-54.4
	C16.4,164.1,23,165,29.4,166.4z"/>
<linearGradient id="XMLID_16_" gradientUnits="userSpaceOnUse" x1="-93.2249" y1="355.6028" x2="-75.2224" y2="355.6028">
	<stop  offset="0.1869" style="stop-color:#A3BDED"/>
	<stop  offset="1" style="stop-color:#00012A"/>
</linearGradient>
<line id="XMLID_107_" class="st2" x1="-75.2" y1="339" x2="-93.2" y2="372.3"/>
<linearGradient id="XMLID_17_" gradientUnits="userSpaceOnUse" x1="-62.3255" y1="376.2024" x2="-44.323" y2="376.2024">
	<stop  offset="0.1869" style="stop-color:#A3BDED"/>
	<stop  offset="1" style="stop-color:#00012A"/>
</linearGradient>
<line id="XMLID_105_" class="st3" x1="-44.3" y1="359.6" x2="-62.3" y2="392.9"/>
<linearGradient id="XMLID_18_" gradientUnits="userSpaceOnUse" x1="-98.3748" y1="407.1018" x2="-80.3723" y2="407.1018">
	<stop  offset="0.1869" style="stop-color:#A3BDED"/>
	<stop  offset="1" style="stop-color:#00012A"/>
</linearGradient>
<line id="XMLID_108_" class="st4" x1="-80.4" y1="390.4" x2="-98.4" y2="423.8"/>
<linearGradient id="XMLID_19_" gradientUnits="userSpaceOnUse" x1="-46.8758" y1="412.2516" x2="-28.8733" y2="412.2516">
	<stop  offset="0.1869" style="stop-color:#A3BDED"/>
	<stop  offset="1" style="stop-color:#00012A"/>
</linearGradient>
<line id="XMLID_109_" class="st5" x1="-28.9" y1="395.6" x2="-46.9" y2="428.9"/>
<linearGradient id="XMLID_20_" gradientUnits="userSpaceOnUse" x1="-15.9765" y1="360.7527" x2="2.0261" y2="360.7527">
	<stop  offset="0.1869" style="stop-color:#A3BDED"/>
	<stop  offset="1" style="stop-color:#00012A"/>
</linearGradient>
<line id="XMLID_112_" class="st6" x1="2" y1="344.1" x2="-16" y2="377.4"/>
<linearGradient id="XMLID_21_" gradientUnits="userSpaceOnUse" x1="25.2227" y1="360.7527" x2="43.2252" y2="360.7527">
	<stop  offset="0.1869" style="stop-color:#A3BDED"/>
	<stop  offset="1" style="stop-color:#00012A"/>
</linearGradient>
<line id="XMLID_126_" class="st7" x1="43.2" y1="344.1" x2="25.2" y2="377.4"/>
<linearGradient id="XMLID_22_" gradientUnits="userSpaceOnUse" x1="56.1221" y1="381.3523" x2="74.1246" y2="381.3523">
	<stop  offset="0.1869" style="stop-color:#A3BDED"/>
	<stop  offset="1" style="stop-color:#00012A"/>
</linearGradient>
<line id="XMLID_120_" class="st8" x1="74.1" y1="364.7" x2="56.1" y2="398"/>
<linearGradient id="XMLID_23_" gradientUnits="userSpaceOnUse" x1="20.0728" y1="412.2516" x2="38.0753" y2="412.2516">
	<stop  offset="0.1869" style="stop-color:#A3BDED"/>
	<stop  offset="1" style="stop-color:#00012A"/>
</linearGradient>
<line id="XMLID_117_" class="st9" x1="38.1" y1="395.6" x2="20.1" y2="428.9"/>
<linearGradient id="XMLID_24_" gradientUnits="userSpaceOnUse" x1="71.5717" y1="417.4016" x2="89.5743" y2="417.4016">
	<stop  offset="0.1869" style="stop-color:#A3BDED"/>
	<stop  offset="1" style="stop-color:#00012A"/>
</linearGradient>
<line id="XMLID_116_" class="st10" x1="89.6" y1="400.7" x2="71.6" y2="434.1"/>
<linearGradient id="XMLID_25_" gradientUnits="userSpaceOnUse" x1="102.4711" y1="365.9026" x2="120.4736" y2="365.9026">
	<stop  offset="0.1869" style="stop-color:#A3BDED"/>
	<stop  offset="1" style="stop-color:#00012A"/>
</linearGradient>
<line id="XMLID_115_" class="st11" x1="120.5" y1="349.3" x2="102.5" y2="382.6"/>
<linearGradient id="XMLID_26_" gradientUnits="userSpaceOnUse" x1="-63.8977" y1="217.098" x2="218.0329" y2="217.098">
	<stop  offset="0.1869" style="stop-color:#A3BDED"/>
	<stop  offset="1" style="stop-color:#00012A"/>
</linearGradient>
<path id="XMLID_98_" class="st12" d="M208.1,219.5c13.6,25,12.9,50.8-0.3,63.4c-2.8,2.6-7.9,6.4-16.7,8.1H-40.2
	c-12.9,0-23.7-12.3-23.7-27.8V263c0-41.3,26.9-74.7,60.7-77c7.1-9.7,28.9-36.9,64-41.9c11.5-1.6,20.1-0.3,22.3,0
	c35.8,5.9,55.1,39,59.3,46.7c5.4-2,13.8-4,23.8-2.7C193,191.5,206.5,216.4,208.1,219.5z"/>
</svg>
