<?xml version="1.0" encoding="utf-8"?>
<!-- Generator: Adobe Illustrator 19.0.0, SVG Export Plug-In . SVG Version: 6.00 Build 0)  -->
<svg version="1.1" id="Capa_1" xmlns="http://www.w3.org/2000/svg" xmlns:xlink="http://www.w3.org/1999/xlink" x="0px" y="0px"
	 viewBox="-223 25 512 512" style="enable-background:new -223 25 512 512;" xml:space="preserve">
<style type="text/css">
	.st0{opacity:0.36;fill:#FFE092;}
	.st1{fill:#FABF17;}
	.st2{fill:#FFFFFF;}
</style>
<path id="XMLID_37_" class="st0" d="M285.6,280.6c0,139.5-113.1,252.6-252.6,252.6c-139.5,0-252.6-113.1-252.6-252.6
	S-106.5,28,33,28C172.5,28,285.6,141.1,285.6,280.6"/>
<path id="XMLID_36_" class="st1" d="M211.8,280.6c0,98.7-80,178.8-178.8,178.8s-178.8-80-178.8-178.8s80-178.8,178.8-178.8
	S211.8,181.8,211.8,280.6"/>
<path id="XMLID_19_" class="st2" d="M40.6,173.3c-2.2,8.9-23.9,3.4-49.2,15.8c-33.1,16.2-40.8,47.4-47.5,44.6
	c-7.2-3-6.4-42.4,17.6-66.2c2-1.9,25.9-24.9,52.9-17.4C28.2,154,42.5,165.7,40.6,173.3z"/>
</svg>
