<?xml version="1.0" encoding="utf-8"?>
<!-- Generator: Adobe Illustrator 19.0.0, SVG Export Plug-In . SVG Version: 6.00 Build 0)  -->
<svg version="1.1" id="Capa_1" xmlns="http://www.w3.org/2000/svg" xmlns:xlink="http://www.w3.org/1999/xlink" x="0px" y="0px"
	 viewBox="-223 142.3 512 385.2" style="enable-background:new -223 142.3 512 385.2;" xml:space="preserve">
<style type="text/css">
	.st0{fill:#FFCE00;}
	.st1{fill:url(#XMLID_4_);}
	.st2{fill:url(#XMLID_5_);}
	.st3{fill:url(#XMLID_6_);}
</style>
<path class="st0" d="M-11.5,386.9h70c2.2,0,3.4,2.5,2,4.1L6.4,454.2c-1.4,1.6-0.2,4.1,2,4.1h28.1c2.2,0,3.4,2.4,2,4l-49.8,61.3
	c-1.8,2.3-5.5,0.3-4.5-2.4l18.3-46.4c0.6-1.6-0.6-3.4-2.4-3.4h-38.4c-1.8,0-3-1.7-2.5-3.3l26.7-79.5
	C-13.6,387.6-12.6,386.9-11.5,386.9z"/>
<linearGradient id="XMLID_4_" gradientUnits="userSpaceOnUse" x1="-211.9142" y1="278.9397" x2="236.1264" y2="278.9397">
	<stop  offset="0.1869" style="stop-color:#A3BDED"/>
	<stop  offset="1" style="stop-color:#04002A"/>
</linearGradient>
<path id="XMLID_91_" class="st1" d="M235.6,320.9c1.5,12.3-0.6,22.7-2.4,29.1c-0.5,3.5-2.9,15.9-14.3,25.9
	c-10.6,9.3-22.5,10.8-26.4,11.1h-366.8c-20.4,0-37.5-16.9-37.6-38.1v-0.4c0-56.7,42.6-102.5,96.2-105.7
	c20.4-44.1,66.3-72.4,116.4-72c13.5,0.1,24,2.3,27.1,3.1c55,14.1,78.8,69.7,83.8,82.3c18.2-10.1,33.5-10.9,41.2-10.7
	C194.4,246.6,230.9,283.3,235.6,320.9z"/>
<linearGradient id="XMLID_5_" gradientUnits="userSpaceOnUse" x1="-219.8444" y1="277.4096" x2="27.7769" y2="277.4096">
	<stop  offset="0.1869" style="stop-color:#A3BDED"/>
	<stop  offset="1" style="stop-color:#04002A"/>
</linearGradient>
<path id="XMLID_90_" class="st2" d="M27.8,174c-10.1,4.3-30.3,14.5-45.8,36.1c-25.9,35.9-18.4,75.2-16.7,83.1
	c-4.7-2.6-31.1-16.9-61.8-7.4c-4.5,1.4-20.1,5.8-31.7,19.7c-17.1,20.4-18.6,50.5-5,78.5c-13.7,0-27.4,0-41,0
	c-5.5,0-24.6-5.3-35.5-17.9c-16.1-18.8-12.7-53.6,10.1-84.9c6.2-8.1,23.5-27.9,53.2-35.6c12-3.1,22.7-3.3,30.8-2.8
	c20.4-44.1,66.3-72.4,116.4-71.9C9.9,170.9,19,172,27.8,174z"/>
<linearGradient id="XMLID_6_" gradientUnits="userSpaceOnUse" x1="-100.3736" y1="240.8916" x2="286.9308" y2="240.8916">
	<stop  offset="0.1869" style="stop-color:#A3BDED"/>
	<stop  offset="1" style="stop-color:#00012A"/>
</linearGradient>
<path id="XMLID_98_" class="st3" d="M273.3,244.1c18.7,33.1,17.7,67.1-0.4,83.8c-3.8,3.5-10.8,8.5-22.9,10.7H-67.8
	c-17.7,0-32.5-16.2-32.6-36.7v-0.4c0-54.6,36.9-98.6,83.4-101.7c9.7-12.8,39.7-48.8,87.9-55.4c15.8-2.2,27.7-0.5,30.6,0
	c49.2,7.7,75.7,51.5,81.5,61.6c7.4-2.6,19-5.3,32.7-3.6C252.5,207,271.1,239.9,273.3,244.1z"/>
</svg>
